<svg id="Layer_35" enable-background="new 0 0 64 64" height="512" viewBox="0 0 64 64" width="512" xmlns="http://www.w3.org/2000/svg"><path d="m60.94 61.89.06.11h-58l.06-.11c1.01-2.04 2.22-3.93 3.61-5.66l.02.01c.72 1.06 1.93 1.76 3.31 1.76 2.21 0 4-1.79 4-4 0-1.36-.68-2.56-1.72-3.28 2.07-1.6 4.32-2.94 6.72-3.99v8.31c0 1.64 1.32 2.96 2.96 2.96h.08c1.64 0 2.96-1.32 2.96-2.96 0 1.64 1.32 2.96 2.96 2.96h.08c1.63 0 2.96-1.32 2.96-2.96v-11.02c.33-.01.67-.02 1-.02 1.94 0 3.86.17 5.73.51l-.72 9.42c-.01.05-.01.09-.01.14 0 1.07.86 1.93 1.93 1.93h.29c1 0 1.84-.77 1.92-1.78l.67-8.7c3.79 1.21 7.34 3.11 10.43 5.6-.76.73-1.24 1.75-1.24 2.88 0 2.21 1.79 4 4 4 1.09 0 2.08-.44 2.8-1.15 1.2 1.56 2.25 3.25 3.14 5.04z" fill="#69d6f4"/><path d="m14 54c0 2.21-1.79 4-4 4-1.38 0-2.59-.7-3.31-1.76l-.02-.01c1.64-2.08 3.53-3.93 5.61-5.51 1.04.72 1.72 1.92 1.72 3.28z" fill="#a0d468"/><path d="m57.8 56.85c-.72.71-1.71 1.15-2.8 1.15-2.21 0-4-1.79-4-4 0-1.13.48-2.15 1.24-2.88 2.07 1.65 3.94 3.57 5.56 5.73z" fill="#a0d468"/><path d="m62 4v14h-18.08l1.07-13.93c.01-.03.01-.05.01-.07z" fill="#e6e9ed"/><path d="m41.14 54.22c-.08 1.01-.92 1.78-1.92 1.78h-.29c-1.07 0-1.93-.86-1.93-1.93 0-.05 0-.09.01-.14l.72-9.42.95-12.4.47-6.01 1.71-22.32c.08-1.01.92-1.78 1.92-1.78h.29c1.07 0 1.93.86 1.93 1.93v.07s0 .04-.01.07l-1.07 13.93-.82 10.73-.45 5.82-.84 10.97z" fill="#cf9e76"/><path d="m31 44.02v11.02c0 1.64-1.33 2.96-2.96 2.96h-.08c-1.64 0-2.96-1.32-2.96-2.96v-17.04-1h6z" fill="#838f9b"/><path d="m25 37v1 17.04c0 1.64-1.32 2.96-2.96 2.96-.02 0-.05 0-.08 0-1.64 0-2.96-1.32-2.96-2.96v-8.31-9.73z" fill="#838f9b"/><path d="m48 33.25v.41c0 .64-.26 1.23-.69 1.65-.42.43-1.01.69-1.65.69-.43 0-.86-.12-1.22-.35l-1.79-1.1.45-5.82 3.86 2.58c.65.43 1.04 1.16 1.04 1.94z" fill="#fcd770"/><path d="m39.15 26.1-.47 6.01-6.68-4.11h-1v9h-6-6v-6.74c0-2.03-1.03-3.93-2.74-5.03l-13.19-8.54c-.67-.43-1.07-1.17-1.07-1.96v-.39c0-1.29 1.05-2.34 2.34-2.34.43 0 .86.12 1.22.35l10.03 6.17c1.58.97 3.39 1.48 5.24 1.48h2.92l-.75 8 2 3 2-3-.75-8h.72c1.98 0 3.91.58 5.55 1.68z" fill="#fcd770"/><path d="m26.25 20 .75 8-2 3-2-3 .75-8h1.25z" fill="#e6e9ed"/><circle cx="25" cy="13" fill="#f0d0b4" r="7"/><path d="m63 19v-16h-17.164c-.39-1.158-1.474-2-2.762-2h-.29c-1.52 0-2.801 1.187-2.917 2.701l-1.587 20.617-5.207-3.471c-1.008-.673-2.111-1.162-3.265-1.47 1.935-1.461 3.192-3.772 3.192-6.377 0-4.411-3.589-8-8-8s-8 3.589-8 8c0 2.346 1.021 4.453 2.635 5.917-1.244-.167-2.444-.59-3.522-1.252l-10.026-6.17c-.525-.324-1.13-.495-1.749-.495-1.84 0-3.338 1.497-3.338 3.338v.39c0 1.137.57 2.185 1.524 2.804l13.192 8.535c1.43.924 2.284 2.494 2.284 4.198v15.823c-6.849 3.17-12.46 8.595-15.839 15.354l-.779 1.558h61.236l-.779-1.559c-3.886-7.772-10.775-13.783-18.977-16.613l.659-8.564.391.241c.526.324 1.131.495 1.75.495 1.84 0 3.338-1.497 3.338-3.338v-.411c0-1.118-.556-2.157-1.486-2.777l-3.374-2.249.709-9.225zm-2-2h-15.997l.923-12h15.074zm-19.14-13.146c.037-.478.443-.854.924-.854h.29c.51 0 .926.415.923.997l-3.857 50.149c-.037.478-.443.854-.924.854h-.29c-.511 0-.926-.415-.923-.997zm-5.044 39.505c-1.593-.233-3.208-.351-4.817-.349l.001-13.836 5.64 3.471zm-10.816 11.685v-17.044h3.999l-.001 17.045c0 1.078-.877 1.955-2.043 1.955-1.078 0-1.955-.877-1.955-1.956zm-2 0c0 1.078-.877 1.955-2.045 1.955-1.078 0-1.955-.877-1.955-1.955v-17.044h4zm1.971-27.304-.971 1.457-.971-1.457.632-6.74h.339.339zm-6.971-14.74c0-3.309 2.691-6 6-6s6 2.691 6 6-2.691 6-6 6-6-2.691-6-6zm-2.197 11.387-13.191-8.534c-.383-.249-.612-.669-.612-1.125v-.39c0-.737.601-1.338 1.338-1.338.248 0 .49.068.701.198l10.026 6.17c1.735 1.068 3.729 1.632 5.766 1.632h1.821l-.681 7.26 3.029 4.543 3.029-4.543-.678-7.232c1.647.069 3.237.565 4.614 1.484l6.14 4.093-.292 3.798-5.53-3.403h-2.283l-.001 9h-9.999v-5.735c0-2.386-1.195-4.583-3.197-5.878zm-4.548 27.642c.475.542.745 1.241.745 1.971 0 1.654-1.346 3-3 3-.752 0-1.464-.283-2.01-.776 1.286-1.531 2.713-2.935 4.265-4.195zm44.116 4.622c-.421.22-.885.349-1.371.349-1.654 0-3-1.346-3-3 0-.513.143-1 .388-1.438 1.446 1.239 2.781 2.607 3.983 4.089zm-5.557-5.358c-.523.801-.814 1.728-.814 2.707 0 2.757 2.243 5 5 5 .93 0 1.818-.267 2.594-.743.626.882 1.213 1.795 1.746 2.743h-54.681c.628-1.117 1.343-2.176 2.098-3.202.895.764 2.038 1.202 3.243 1.202 2.757 0 5-2.243 5-5 0-1.172-.421-2.29-1.154-3.177 1.315-.936 2.701-1.771 4.154-2.497v6.718c0 2.181 1.774 3.955 4.045 3.955 1.183 0 2.234-.533 2.959-1.358.735.826 1.808 1.359 3.039 1.359 2.181 0 3.955-1.774 3.955-3.955l.001-10.034c1.557.001 3.122.117 4.663.348l-.653 8.489c-.006.076-.009.15-.009.226 0 1.614 1.312 2.926 2.926 2.926h.29c1.52 0 2.801-1.187 2.917-2.701l.57-7.411c2.918 1.062 5.65 2.555 8.111 4.405zm-4.41-19.155c.373.249.596.665.596 1.113v.411c0 .737-.601 1.338-1.338 1.338-.248 0-.49-.068-.701-.198l-1.267-.78.27-3.511z"/><path d="m57 7h2v2h-2z"/><path d="m53 7h2v2h-2z"/><path d="m49 7h2v2h-2z"/><path d="m46 52h2v2h-2z"/><path d="m43 57h2v2h-2z"/></svg>