<svg id="Capa_1" enable-background="new 0 0 512 512" height="512" viewBox="0 0 512 512" width="512" xmlns="http://www.w3.org/2000/svg"><g><g><g><path d="m291.356 204.482v-116.169h25.254l-60.61-80.813-60.61 80.813h25.254v116.169z" fill="#9bd069"/></g><g><path d="m291.356 181.519c-11.683-1.513-23.475-2.292-35.356-2.292-11.88 0-23.673.779-35.356 2.291v22.963h70.711v-22.962z" fill="#7dbe3b"/></g></g><g><g><path d="m449.951 286.305v-116.169h25.254l-60.61-80.813-60.609 80.813h25.254v116.169z" fill="#9bd069"/></g><g><path d="m379.24 208.253v78.052h70.711v-30.709c-22.288-19.314-46.016-35.199-70.711-47.343z" fill="#7dbe3b"/></g></g><g><g><path d="m62.049 286.305v-116.169h-25.254l60.609-80.813 60.61 80.813h-25.254v116.169z" fill="#9bd069"/></g><g><path d="m62.049 255.596v30.709h70.711v-78.052c-24.695 12.144-48.423 28.029-70.711 47.343z" fill="#7dbe3b"/></g></g><g><path d="m256 201.451c-161.626 0-248.5 151.524-248.5 151.524s86.874 151.525 248.5 151.525 248.5-151.524 248.5-151.524-86.874-151.525-248.5-151.525z" fill="#f6f9f9"/></g><g><path d="m269.62 466.076c-64.716 13.934-123.3 3.48-171.669-15.475 40.045 29.34 92.985 53.899 158.049 53.899 161.626 0 248.5-151.524 248.5-151.524s-10.45-18.215-30.826-42.01c-34.656 57.425-98.625 132.411-204.054 155.11z" fill="#f1f4f6"/></g><g><circle cx="256" cy="352.976" fill="#cbe2ff" r="101.016"/></g><g><g><path d="m272.163 307.518h32.325v92.935h-32.325z" fill="#9bd069"/></g><g><path d="m239.837 328.732h32.325v71.722h-32.325z" fill="#e28086"/></g><g><path d="m207.512 348.935h32.325v51.518h-32.325z" fill="#ffe07d"/></g></g><g><path d="m511.007 349.245c-.824-1.437-18.812-32.472-53.556-66.684v-41.028c0-4.143-3.357-7.5-7.5-7.5s-7.5 3.357-7.5 7.5v27.064c-17.716-15.602-36.372-28.925-55.711-39.778v-58.684c0-4.143-3.357-7.5-7.5-7.5h-10.255l45.61-60.813 45.609 60.813h-10.254c-4.143 0-7.5 3.357-7.5 7.5v36.365c0 4.143 3.357 7.5 7.5 7.5s7.5-3.357 7.5-7.5v-28.864h17.754c2.841 0 5.438-1.605 6.708-4.146 1.271-2.541.996-5.582-.708-7.854l-60.609-80.813c-1.416-1.889-3.64-3-6-3s-4.584 1.111-6 3l-60.61 80.813c-1.704 2.272-1.979 5.313-.708 7.854 1.271 2.54 3.867 4.146 6.708 4.146h17.755v43.329c-1.859-.905-3.722-1.791-5.591-2.651-21.773-10.018-44.287-16.969-67.294-20.812v-42.109c0-4.143-3.357-7.5-7.5-7.5s-7.5 3.357-7.5 7.5v40.051c-9.221-.99-18.511-1.493-27.855-1.493s-18.635.502-27.855 1.493v-107.131c0-4.143-3.358-7.5-7.5-7.5h-10.255l45.61-60.813 45.609 60.813h-10.254c-4.143 0-7.5 3.357-7.5 7.5v31.923c0 4.143 3.357 7.5 7.5 7.5s7.5-3.357 7.5-7.5v-24.423h17.754c2.841 0 5.438-1.605 6.708-4.146 1.271-2.541.996-5.582-.708-7.854l-60.609-80.813c-1.416-1.889-3.64-3-6-3-2.361 0-4.583 1.111-6 3l-60.61 80.813c-1.705 2.272-1.979 5.313-.708 7.854 1.27 2.54 3.867 4.146 6.708 4.146h17.754v101.688c-23.007 3.843-45.521 10.793-67.293 20.812-1.869.86-3.732 1.747-5.591 2.651v-43.329h17.754c2.841 0 5.438-1.605 6.708-4.146 1.271-2.541.997-5.582-.708-7.854l-60.61-80.813c-1.417-1.889-3.639-3-6-3s-4.583 1.111-6 3l-60.609 80.813c-1.705 2.272-1.979 5.313-.708 7.854 1.27 2.54 3.867 4.146 6.708 4.146h17.754v28.865c0 4.143 3.358 7.5 7.5 7.5s7.5-3.357 7.5-7.5v-36.364c0-4.143-3.358-7.5-7.5-7.5h-10.254l45.609-60.813 45.61 60.813h-10.254c-4.142 0-7.5 3.357-7.5 7.5v58.684c-19.339 10.853-37.995 24.176-55.711 39.777v-27.063c0-4.143-3.358-7.5-7.5-7.5s-7.5 3.357-7.5 7.5v41.028c-34.743 34.212-52.731 65.247-53.555 66.684-1.325 2.311-1.325 5.15 0 7.461.911 1.589 22.798 39.355 65.118 77.597 24.905 22.504 51.733 40.448 79.739 53.335 35.133 16.165 72.193 24.361 110.149 24.361s75.016-8.196 110.149-24.362c28.006-12.887 54.834-30.831 79.738-53.335 42.32-38.241 64.208-76.008 65.119-77.597 1.325-2.31 1.325-5.15.001-7.461zm-75.532 74.25c-37.213 33.532-98.558 73.505-179.475 73.505s-142.262-39.973-179.475-73.505c-33.177-29.896-53.681-60.169-60.23-70.52 6.553-10.354 27.056-40.626 60.23-70.52 37.213-33.532 98.559-73.505 179.475-73.505 80.917 0 142.262 39.973 179.475 73.505 33.178 29.896 53.682 60.169 60.231 70.52-6.553 10.355-27.057 40.627-60.231 70.52z"/><path d="m256 244.459c-59.836 0-108.516 48.681-108.516 108.517s48.68 108.516 108.516 108.516 108.517-48.681 108.517-108.517-48.681-108.516-108.517-108.516zm0 202.033c-51.565 0-93.516-41.951-93.516-93.517s41.951-93.517 93.516-93.517 93.517 41.951 93.517 93.517-41.952 93.517-93.517 93.517z"/><path d="m304.488 300.019h-32.325c-4.143 0-7.5 3.357-7.5 7.5v13.713h-24.826c-4.142 0-7.5 3.357-7.5 7.5v12.703h-24.825c-4.142 0-7.5 3.357-7.5 7.5v51.519c0 4.143 3.358 7.5 7.5 7.5h96.976c4.143 0 7.5-3.357 7.5-7.5v-92.935c0-4.143-3.357-7.5-7.5-7.5zm-89.476 56.416h17.325v36.519h-17.325zm32.325-20.204h17.326v56.722h-17.326zm49.651 56.722h-17.325v-77.935h17.325z"/><path d="m429.748 345.476h-40.406c-4.143 0-7.5 3.357-7.5 7.5s3.357 7.5 7.5 7.5h40.406c4.143 0 7.5-3.357 7.5-7.5s-3.357-7.5-7.5-7.5z"/><path d="m406.515 377.801h-20.205c-4.143 0-7.5 3.357-7.5 7.5s3.357 7.5 7.5 7.5h20.204c4.143 0 7.5-3.357 7.5-7.5s-3.357-7.5-7.499-7.5z"/><path d="m386.31 328.15h20.204c4.143 0 7.5-3.357 7.5-7.5s-3.357-7.5-7.5-7.5h-20.204c-4.143 0-7.5 3.357-7.5 7.5s3.358 7.5 7.5 7.5z"/><path d="m130.159 352.976c0-4.143-3.358-7.5-7.5-7.5h-40.407c-4.142 0-7.5 3.357-7.5 7.5s3.358 7.5 7.5 7.5h40.407c4.142 0 7.5-3.358 7.5-7.5z"/><path d="m125.689 377.801h-20.203c-4.142 0-7.5 3.357-7.5 7.5s3.358 7.5 7.5 7.5h20.203c4.142 0 7.5-3.357 7.5-7.5s-3.358-7.5-7.5-7.5z"/><path d="m125.689 313.15h-20.203c-4.142 0-7.5 3.357-7.5 7.5s3.358 7.5 7.5 7.5h20.203c4.142 0 7.5-3.357 7.5-7.5s-3.358-7.5-7.5-7.5z"/></g></g></svg>