<svg height="512" viewBox="0 0 64 64" width="512" xmlns="http://www.w3.org/2000/svg"><rect fill="#acabb1" height="60" rx="4" width="60" x="2" y="2"/><path d="m52 56v6h-40v-6a19.992 19.992 0 0 1 16.28-19.65 11 11 0 1 1 7.44 0 20.008 20.008 0 0 1 16.28 19.65z" fill="#ffde17"/><path d="m58 1h-52a5.006 5.006 0 0 0 -5 5v52a5.006 5.006 0 0 0 5 5h52a5.006 5.006 0 0 0 5-5v-52a5.006 5.006 0 0 0 -5-5zm-45 60v-5a18.991 18.991 0 0 1 15.465-18.667 1 1 0 0 0 .152-1.924 10 10 0 1 1 6.766 0 1 1 0 0 0 .152 1.924 19.007 19.007 0 0 1 15.465 18.667v5zm48-3a3 3 0 0 1 -3 3h-5v-5a21.02 21.02 0 0 0 -14.441-19.951 12 12 0 1 0 -13.12 0 21 21 0 0 0 -14.439 19.951v5h-5a3 3 0 0 1 -3-3v-52a3 3 0 0 1 3-3h52a3 3 0 0 1 3 3z"/><path d="m16 5h-10a1 1 0 0 0 0 2h10a1 1 0 0 0 0-2z"/><path d="m21 5h-2a1 1 0 0 0 0 2h2a1 1 0 0 0 0-2z"/></svg>