<?xml version="1.0"?>
<svg xmlns="http://www.w3.org/2000/svg" width="512" height="512" viewBox="0 0 512 512"><g><g><path d="M422.453,374.943,256,496,89.547,374.943A24,24,0,0,1,79.672,356.2L72.488,97.562A24,24,0,0,1,88.594,74.228L256,16,423.406,74.228a24,24,0,0,1,16.106,23.334L432.328,356.2A24,24,0,0,1,422.453,374.943Z" fill="#57565c"/><path d="M111.223,339.578l-6.1-219.487a24,24,0,0,1,16.106-23.335L256,49.88,390.768,96.756a24,24,0,0,1,16.106,23.335l-6.1,219.487a24,24,0,0,1-9.875,18.743L256,456.432,121.1,358.321A24,24,0,0,1,111.223,339.578Z" fill="#ffda44"/><path d="M232,320a15.945,15.945,0,0,1-11.313-4.687l-40-40a16,16,0,1,1,22.626-22.626L232,281.373l92.687-92.686a16,16,0,0,1,22.626,22.626l-104,104A15.945,15.945,0,0,1,232,320Z" fill="#91cc04"/></g><g><path d="M426.03,66.67,258.63,8.44a8.037,8.037,0,0,0-5.26,0L85.96,66.67A31.891,31.891,0,0,0,64.49,97.78l7.18,258.64a32.217,32.217,0,0,0,13.17,24.99L251.29,502.47a8.015,8.015,0,0,0,9.42,0L427.16,381.41a32.217,32.217,0,0,0,13.17-24.99l7.18-258.63A31.891,31.891,0,0,0,426.03,66.67Zm-1.7,289.31a16.109,16.109,0,0,1-6.58,12.49L256,486.11,94.25,368.47a16.109,16.109,0,0,1-6.58-12.49L80.49,97.34A15.952,15.952,0,0,1,91.22,81.78L256,24.47,420.78,81.78a15.952,15.952,0,0,1,10.73,15.56Z"/><path d="M393.4,89.2,258.63,42.32a8.037,8.037,0,0,0-5.26,0L118.6,89.2a31.882,31.882,0,0,0-21.47,31.11l6.1,219.49a32.189,32.189,0,0,0,13.16,24.99l134.9,98.11a8.015,8.015,0,0,0,9.42,0l134.9-98.11a32.193,32.193,0,0,0,13.16-24.99l6.1-219.49A31.882,31.882,0,0,0,393.4,89.2Zm-.62,250.16a16.124,16.124,0,0,1-6.58,12.49L256,446.54,125.8,351.85a16.124,16.124,0,0,1-6.58-12.49l-6.1-219.49a15.952,15.952,0,0,1,10.74-15.56L256,58.35l132.14,45.96a15.952,15.952,0,0,1,10.74,15.56Z"/><path d="M352.97,183.03a24,24,0,0,0-33.94,0L232,270.06l-23.03-23.03a24,24,0,1,0-33.94,33.94l40,40a24,24,0,0,0,33.94,0l104-104a24,24,0,0,0,0-33.94Zm-11.31,22.63-104,104a8.015,8.015,0,0,1-11.32,0l-40-40a8,8,0,0,1,11.32-11.32l28.68,28.69a8.015,8.015,0,0,0,11.32,0l92.68-92.69a8,8,0,0,1,11.32,11.32Z"/></g></g></svg>
